<?xml version="1.0" standalone="no"?><!DOCTYPE svg PUBLIC "-//W3C//DTD SVG 1.1//EN" "http://www.w3.org/Graphics/SVG/1.1/DTD/svg11.dtd"><svg t="1582446195647" class="icon" viewBox="0 0 1024 1024" version="1.1" xmlns="http://www.w3.org/2000/svg" p-id="18981" xmlns:xlink="http://www.w3.org/1999/xlink" width="128" height="128"><defs><style type="text/css"></style></defs><path d="M204.638316 138.671158a49.044211 49.044211 0 0 1 66.829473 9.162105 44.678737 44.678737 0 0 1-9.485473 64.134737c-104.070737 75.183158-166.534737 192.673684-166.534737 320.134737 0 221.022316 186.475789 400.168421 416.552421 400.168421 230.022737 0 416.552421-179.146105 416.552421-400.168421 0-127.622737-62.571789-245.221053-166.858105-320.350316a44.678737 44.678737 0 0 1-9.539369-64.188632 49.044211 49.044211 0 0 1 66.829474-9.162105C946.984421 230.669474 1024 375.322947 1024 532.102737 1024 803.732211 794.785684 1024 512 1024S0 803.786105 0 532.102737c0-156.618105 76.8-301.109895 204.638316-393.431579z m355.112421 229.214316c0 25.330526-21.396211 45.810526-47.750737 45.810526-26.408421 0-47.750737-20.48-47.750737-45.810526V45.810526C464.249263 20.48 485.645474 0 512 0c26.408421 0 47.750737 20.48 47.750737 45.810526v322.074948z" p-id="18982" fill="#515151"></path></svg>