<?xml version="1.0" standalone="no"?><!DOCTYPE svg PUBLIC "-//W3C//DTD SVG 1.1//EN" "http://www.w3.org/Graphics/SVG/1.1/DTD/svg11.dtd"><svg t="1582440706668" class="icon" viewBox="0 0 1024 1024" version="1.1" xmlns="http://www.w3.org/2000/svg" p-id="12734" xmlns:xlink="http://www.w3.org/1999/xlink" width="128" height="128"><defs><style type="text/css"></style></defs><path d="M648.443555 388.960733 451.105095 596.002183c-27.237341 28.577872-26.234501 74.110905 2.442632 101.441367 28.677133 27.332509 74.208119 26.15366 101.44546-2.425236 7.247054-7.604188 12.678764-16.423041 15.934924-26.079982l98.42159-266.868023c2.095731-5.686513-0.020466-11.905144-5.02341-15.096836C659.151431 383.78485 652.547013 384.655683 648.443555 388.960733z" p-id="12735"></path><path d="M514.508123 133.456524c-247.214405 0-447.620737 200.406333-447.620737 447.620737 0 110.476137 40.215934 211.428364 106.551758 289.50151 3.736091 4.397147 7.735172 8.553817 11.638061 12.803607 6.395664 4.433986 14.133905 7.063883 22.505573 7.063883 21.869077 0 39.596833-17.727757 39.596833-39.596833 0-10.779507-4.336772-20.527522-11.323906-27.66713-0.134053-0.137123-0.249687-0.289596-0.384763-0.423649-56.18872-64.815191-90.426499-149.168368-90.426499-241.680365 0-204.049303 165.4154-369.464703 369.464703-369.464703s369.464703 165.4154 369.464703 369.464703c0 91.798752-33.680077 175.597297-89.094154 240.21499-2.440585 2.158153-4.696975 4.508687-6.54609 7.204076-4.364401 6.363941-6.939039 14.052041-6.939039 22.353101 0 21.869077 17.727757 39.596833 39.594787 39.596833 9.205663 0 17.570167-3.269463 24.293289-8.53949 3.066849-3.368724 6.225795-6.64842 9.188266-10.109242 66.974367-78.243015 107.658975-179.651636 107.658975-290.719244C962.128861 333.862857 761.722528 133.456524 514.508123 133.456524z" p-id="12736"></path></svg>