<?xml version="1.0" standalone="no"?><!DOCTYPE svg PUBLIC "-//W3C//DTD SVG 1.1//EN" "http://www.w3.org/Graphics/SVG/1.1/DTD/svg11.dtd"><svg t="1582442125357" class="icon" viewBox="0 0 1024 1024" version="1.1" xmlns="http://www.w3.org/2000/svg" p-id="14356" xmlns:xlink="http://www.w3.org/1999/xlink" width="128" height="128"><defs><style type="text/css"></style></defs><path d="M182.886656 68.096a67.2768 67.2768 0 0 0-65.8432 68.608v750.592a67.2768 67.2768 0 0 0 65.8432 68.608h658.2272a67.2768 67.2768 0 0 0 65.8432-68.608V136.704a67.2768 67.2768 0 0 0-65.8432-68.608H182.886656z m0-68.096h658.2272A134.0928 134.0928 0 0 1 972.800256 136.704v750.592A134.0928 134.0928 0 0 1 841.113856 1024H182.886656A134.0928 134.0928 0 0 1 51.200256 887.296V136.704A134.0928 134.0928 0 0 1 182.886656 0z m65.792 272.896h65.8432v68.608H248.678656V272.896z m0 204.8h65.8432v68.608H248.678656V477.696z m131.6352-204.8h395.008v68.608H380.313856V272.896z m0 204.8h395.008v68.608H380.313856V477.696z m-131.6352 204.8h65.8432v68.608H248.678656v-68.608z m131.6352 0h395.008v68.608H380.313856v-68.608z" p-id="14357"></path></svg>