<?xml version="1.0" standalone="no"?><!DOCTYPE svg PUBLIC "-//W3C//DTD SVG 1.1//EN" "http://www.w3.org/Graphics/SVG/1.1/DTD/svg11.dtd"><svg class="icon" width="128px" height="128.00px" viewBox="0 0 1024 1024" version="1.1" xmlns="http://www.w3.org/2000/svg"><path fill="#8a8a8a" d="M512 62.389956c-248.312412 0-449.610044 201.297632-449.610044 449.610044s201.297632 449.610044 449.610044 449.610044 449.610044-201.297632 449.610044-449.610044-201.297632-449.610044-449.610044-449.610044z m0 858.346169c-225.378074 0-408.736125-183.359075-408.736125-408.736125S286.621926 103.262852 512 103.262852s408.736125 183.359075 408.736125 408.736125-183.359075 408.737148-408.736125 408.737148zM695.931103 471.126081h-143.058207v-143.058207c0-22.479991-18.393929-40.873919-40.873919-40.87392s-40.873919 18.393929-40.87392 40.87392v143.058207h-143.058206c-22.479991 0-40.873919 18.393929-40.87392 40.873919s18.393929 40.873919 40.87392 40.873919h143.058206v143.058207c0 22.479991 18.393929 40.873919 40.87392 40.87392s40.873919-18.393929 40.873919-40.87392v-143.058207h143.058207c22.479991 0 40.873919-18.393929 40.873919-40.873919s-18.393929-40.873919-40.873919-40.873919z" /></svg>