<?xml version="1.0" standalone="no"?><!DOCTYPE svg PUBLIC "-//W3C//DTD SVG 1.1//EN" "http://www.w3.org/Graphics/SVG/1.1/DTD/svg11.dtd"><svg t="1582445298305" class="icon" viewBox="0 0 1024 1024" version="1.1" xmlns="http://www.w3.org/2000/svg" p-id="15996" xmlns:xlink="http://www.w3.org/1999/xlink" width="128" height="128"><defs><style type="text/css"></style></defs><path d="M85.333 512a42.667 42.667 0 1 0 85.334 0 42.667 42.667 0 1 0-85.334 0zM85.333 213.333a42.667 42.667 0 1 0 85.334 0 42.667 42.667 0 1 0-85.334 0zM85.333 810.667a42.667 42.667 0 1 0 85.334 0 42.667 42.667 0 1 0-85.334 0zM298.667 469.333H896q42.667 0 42.667 42.667T896 554.667H298.667Q256 554.667 256 512t42.667-42.667zM298.667 170.667H896q42.667 0 42.667 42.666Q938.667 256 896 256H298.667Q256 256 256 213.333q0-42.666 42.667-42.666zM298.667 768H896q42.667 0 42.667 42.667 0 42.666-42.667 42.666H298.667q-42.667 0-42.667-42.666Q256 768 298.667 768z" fill="#595959" p-id="15997"></path></svg>