<?xml version="1.0" standalone="no"?><!DOCTYPE svg PUBLIC "-//W3C//DTD SVG 1.1//EN" "http://www.w3.org/Graphics/SVG/1.1/DTD/svg11.dtd"><svg t="1582442111417" class="icon" viewBox="0 0 1024 1024" version="1.1" xmlns="http://www.w3.org/2000/svg" p-id="13587" xmlns:xlink="http://www.w3.org/1999/xlink" width="128" height="128"><defs><style type="text/css"></style></defs><path d="M536.9 776.6c0 18.6 15.1 33.7 33.7 33.7h379.3c18.6 0 33.7-15.1 33.7-33.7s-15.1-33.7-33.7-33.7H570.5c-18.6 0-33.6 15-33.6 33.7z m412.9 174.5H570.5c-18.6 0-33.7 15.1-33.7 33.7s15.1 33.7 33.7 33.7h379.3c18.6 0 33.7-15.1 33.7-33.7 0-18.7-15.1-33.7-33.7-33.7z" p-id="13588"></path><path d="M865.9 646.2c12-14.2 10.1-35.5-4.1-47.5-50.9-42.9-110.1-74.4-173.5-94.1 78.8-48.7 131.5-133.6 131.5-230.5C819.8 122.9 692.5 0 536 0S252.3 122.9 252.3 274.1c0 96.8 52.6 181.6 131.2 230.3-198.8 62.2-343 242.2-343 454.2 0 11.4 0.4 22.8 1.2 34 1.2 17.8 16 31.4 33.5 31.4 0.8 0 1.6 0 2.4-0.1 18.5-1.3 32.6-17.4 31.3-35.9-0.7-9.7-1.1-19.5-1.1-29.4 0-226.2 192.1-410.2 428.1-410.2 104.1 0 204.4 36.2 282.4 101.9 14.2 11.9 35.4 10 47.6-4.1zM319.6 274.1c0-114 97.1-206.7 216.4-206.7s216.4 92.7 216.4 206.7S655.3 480.8 536 480.8s-216.4-92.7-216.4-206.7z" p-id="13589"></path></svg>